name Walk1.mot
datacolumns 19
datarows 17
range 1.88000000 1.96000000
endheader

                time	   L_ground_force_vx	   L_ground_force_vy	   L_ground_force_vz	   L_ground_force_px	   L_ground_force_py	   L_ground_force_pz	   R_ground_force_vx	   R_ground_force_vy	   R_ground_force_vz	   R_ground_force_px	   R_ground_force_py	   R_ground_force_pz	   L_ground_torque_x	   L_ground_torque_y	   L_ground_torque_z	   R_ground_torque_x	   R_ground_torque_y	   R_ground_torque_z	
          1.88000000	        -12.33632460	        570.88989958	         24.77743778	          0.43183336	          0.00000000	          0.25957700	         -0.00333262	         -0.01587555	          0.00012534	         -0.00001140	          0.00000000	          0.00006103	          0.00000000	         -2.14848798	          0.00000000	          0.00000000	          0.00008007	          0.00000000	
          1.88500000	         -9.87198226	        571.11987092	         25.11710601	          0.43315907	          0.00000000	          0.25923426	         -0.00555541	         -0.01939733	         -0.00026001	         -0.00000527	          0.00000000	          0.00003039	          0.00000000	         -2.18618424	          0.00000000	          0.00000000	          0.00002935	          0.00000000	
          1.89000000	         -7.45335151	        572.83504719	         25.28617311	          0.43449416	          0.00000000	          0.25887122	         -0.00654148	         -0.02012167	         -0.00048655	         -0.00000093	          0.00000000	          0.00000833	          0.00000000	         -2.21194123	          0.00000000	          0.00000000	         -0.00000550	          0.00000000	
          1.89500000	         -5.08263576	        575.94217755	         25.26163993	          0.43583010	          0.00000000	          0.25848982	         -0.00665647	         -0.01899480	         -0.00059336	          0.00000193	          0.00000000	         -0.00000647	          0.00000000	         -2.22759845	          0.00000000	          0.00000000	         -0.00002741	          0.00000000	
          1.90000000	         -2.76433302	        580.31809090	         25.03646016	          0.43716034	          0.00000000	          0.25809124	         -0.00620377	         -0.01676991	         -0.00061492	          0.00000362	          0.00000000	         -0.00001546	          0.00000000	         -2.23461607	          0.00000000	          0.00000000	         -0.00003930	          0.00000000	
          1.90500000	         -0.50343475	        585.81332559	         24.62220841	          0.43848333	          0.00000000	          0.25767509	         -0.00542282	         -0.01401682	         -0.00058011	          0.00000441	          0.00000000	         -0.00001999	          0.00000000	         -2.23407517	          0.00000000	          0.00000000	         -0.00004381	          0.00000000	
          1.91000000	          1.69353091	        592.26018903	         24.04923264	          0.43980241	          0.00000000	          0.25723955	         -0.00449313	         -0.01114276	         -0.00051191	          0.00000457	          0.00000000	         -0.00002132	          0.00000000	         -2.22710363	          0.00000000	          0.00000000	         -0.00004324	          0.00000000	
          1.91500000	          3.81562051	        599.47816130	         23.36375833	          0.44112543	          0.00000000	          0.25678220	         -0.00354158	         -0.00841843	         -0.00042769	          0.00000431	          0.00000000	         -0.00002049	          0.00000000	         -2.21421778	          0.00000000	          0.00000000	         -0.00003946	          0.00000000	
          1.92000000	          5.84500159	        607.27603509	         22.62417519	          0.44246697	          0.00000000	          0.25630013	         -0.00265128	         -0.00600557	         -0.00033986	          0.00000380	          0.00000000	         -0.00001833	          0.00000000	         -2.19520759	          0.00000000	          0.00000000	         -0.00003391	          0.00000000	
          1.92500000	          7.75710597	        615.45593543	         21.89512163	          0.44384936	          0.00000000	          0.25579057	         -0.00187066	         -0.00398328	         -0.00025665	          0.00000318	          0.00000000	         -0.00001550	          0.00000000	         -2.16925295	          0.00000000	          0.00000000	         -0.00002767	          0.00000000	
          1.93000000	          9.52332941	        623.81982641	         21.24095390	          0.44529757	          0.00000000	          0.25525291	         -0.00122212	         -0.00237140	         -0.00018300	          0.00000252	          0.00000000	         -0.00001246	          0.00000000	         -2.13482750	          0.00000000	          0.00000000	         -0.00002148	          0.00000000	
          1.93500000	         11.11475547	        632.17641451	         20.71947409	          0.44683530	          0.00000000	          0.25468903	         -0.00070957	         -0.00115018	         -0.00012129	          0.00000191	          0.00000000	         -0.00000952	          0.00000000	         -2.09013896	          0.00000000	          0.00000000	         -0.00001581	          0.00000000	
          1.94000000	         12.50748161	        640.34838276	         20.37651351	          0.44848350	          0.00000000	          0.25410209	         -0.00032476	         -0.00027607	         -0.00007212	          0.00000136	          0.00000000	         -0.00000689	          0.00000000	         -2.03376762	          0.00000000	          0.00000000	         -0.00001093	          0.00000000	
          1.94500000	         13.68762520	        648.18224090	         20.24201047	          0.45025771	          0.00000000	          0.25349621	         -0.00005231	          0.00030631	         -0.00003489	          0.00000090	          0.00000000	         -0.00000465	          0.00000000	         -1.96508564	          0.00000000	          0.00000000	         -0.00000693	          0.00000000	
          1.95000000	         14.65402687	        655.55330481	         20.32855810	          0.45216686	          0.00000000	          0.25287645	          0.00012655	          0.00065556	         -0.00000826	          0.00000054	          0.00000000	         -0.00000285	          0.00000000	         -1.88456316	          0.00000000	          0.00000000	         -0.00000382	          0.00000000	
          1.95500000	         15.41809870	        662.36749194	         20.63308063	          0.45421451	          0.00000000	          0.25224891	          0.00023124	          0.00082768	          0.00000948	          0.00000026	          0.00000000	         -0.00000147	          0.00000000	         -1.79381213	          0.00000000	          0.00000000	         -0.00000152	          0.00000000	
          1.96000000	         16.00035885	        668.56216440	         21.14080364	          0.45640106	          0.00000000	          0.25162236	          0.00028009	          0.00087259	          0.00002010	          0.00000006	          0.00000000	         -0.00000047	          0.00000000	         -1.69526229	          0.00000000	          0.00000000	          0.00000007	          0.00000000	
